# xmcd
#
# Track frame offsets: 
#        150
#        18673
#        37599
#        52227
#        65069
#        94106
#        111693
#        136005
#        162183
#        191658
#        207303
#        223411
#        258361
#        312840
#        324216
#
# Disc length: 4503 seconds
#
# Revision: 0
# Processed by: cddbd v1.5.1PL0 Copyright (c) Steve Scherf et al.
# Submitted via: ExactAudioCopy v0.95a4
#
DISCID=df11950f
DTITLE=Van Morrison - Midtfyn Festival
DYEAR=1988
DGENRE=Celtic
TTITLE0=Celtic Excavation
TTITLE1=Queen Of The Slipstream
TTITLE2=Bright Side Of The Road
TTITLE3=I Forgot That Love Existed
TTITLE4=Someone Like You
TTITLE5=The Mystery
TTITLE6=What Would I Do
TTITLE7=Vanlose Stairway
TTITLE8=Help Me
TTITLE9=Irish Heartbeat
TTITLE10=Celtic Ray
TTITLE11=Summertime In England
TTITLE12=Rave On John Donne > Did Ye Get Healed
TTITLE13=Full Force Gale
TTITLE14=I'll Tell Me Ma
EXTD=
EXTT0=
EXTT1=
EXTT2=
EXTT3=
EXTT4=
EXTT5=
EXTT6=
EXTT7=
EXTT8=
EXTT9=
EXTT10=
EXTT11=
EXTT12=
EXTT13=
EXTT14=
PLAYORDER=
